<svg width="69" height="60" viewBox="0 0 69 60" fill="none" xmlns="http://www.w3.org/2000/svg">
<path d="M29.4945 16.2055H41.7475V13.913H29.4945V7.19366H26.9648V31.8577H43.3285V29.5652H29.4945V16.2055Z" fill="#0D0A06"/>
<path d="M26.9648 0V3.24111H29.4945V2.29249H43.3285V0H26.9648Z" fill="#0D0A06"/>
<path d="M45.1476 22.2134C45.1476 23.5572 44.0408 24.5849 42.776 24.5849H29.8906V27.747H42.697C45.78 27.747 48.2306 25.2173 48.2306 22.2134V19.6047H45.0685V22.2134H45.1476Z" fill="#0D0A06"/>
<path d="M42.7785 3.63629H26.8892C23.0947 3.63629 20.0117 6.7193 20.0117 10.5138V20.7905C20.0117 24.5059 22.9366 27.5098 26.573 27.6679V24.5059C24.6758 24.3478 23.1738 22.7667 23.1738 20.7905V10.5138C23.1738 8.45843 24.8339 6.79835 26.8892 6.79835H42.6995C44.0434 6.79835 45.071 7.90507 45.071 9.16989V11.2252H48.2331V9.16989C48.3121 6.16594 45.7825 3.63629 42.7785 3.63629Z" fill="#0D0A06"/>
<path d="M8.45851 48.2214C8.53756 48.2214 8.53756 48.2214 8.53756 48.3005C8.45851 49.091 8.37945 49.9606 8.37945 50.8301C8.37945 50.9092 8.37945 50.9882 8.3004 51.0673C8.22135 51.1463 8.1423 51.1463 8.06325 51.1463H0C0 51.1463 0 51.1463 0 51.0673C0 50.9882 0 50.9882 0 50.9882C0.474309 50.9882 0.869566 50.9882 1.10672 50.9092C1.34387 50.8301 1.50198 50.7511 1.58103 50.5139C1.66008 50.3558 1.73913 50.0396 1.73913 49.6443V40.5534C1.73913 40.1582 1.66008 39.842 1.58103 39.6839C1.50198 39.5258 1.34387 39.3677 1.10672 39.2886C0.869566 39.2096 0.474309 39.2096 0 39.2096C0 39.2096 0 39.2096 0 39.1305C0 39.0515 0 39.0515 0 39.0515H7.74704C7.82609 39.0515 7.90515 39.1305 7.90515 39.2096V41.5811C7.90515 41.5811 7.90515 41.6602 7.82609 41.6602C7.74704 41.6602 7.74704 41.6601 7.74704 41.5811C7.74704 40.9487 7.58894 40.3953 7.19368 40.0001C6.87748 39.6048 6.40317 39.4467 5.77076 39.4467H4.50593C4.03162 39.4467 3.63637 39.4467 3.39921 39.5258C3.16206 39.6048 3.00396 39.6839 2.9249 39.921C2.84585 40.0791 2.7668 40.3953 2.7668 40.7906V44.7432H5.3755C6.00791 44.7432 6.40317 44.6641 6.64032 44.427C6.87748 44.1898 6.95653 43.8736 6.95653 43.3993C6.95653 43.3993 6.95653 43.3993 7.03558 43.3993C7.11463 43.3993 7.11463 43.3993 7.11463 43.3993V44.9803C7.11463 45.3756 7.11463 45.6127 7.11463 45.8499V46.7985C7.11463 46.7985 7.11463 46.7985 7.03558 46.7985C6.95653 46.7985 6.95653 46.7985 6.95653 46.7985C6.95653 46.2451 6.79843 45.7708 6.56127 45.5337C6.32412 45.2965 5.84981 45.2175 5.2174 45.2175H2.84585V49.7234C2.84585 50.1187 2.9249 50.3558 3.00396 50.593C3.00396 50.5139 3.16206 50.593 3.39921 50.672C3.63637 50.7511 4.03162 50.7511 4.50593 50.7511H6.32412C6.87748 50.7511 7.27273 50.5139 7.66799 50.0396C8.06325 49.5653 8.3004 49.0119 8.37945 48.2214C8.37945 48.3005 8.37945 48.2214 8.45851 48.2214Z" fill="#0D0A06"/>
<path d="M17.9422 51.0673C17.9422 51.1463 17.9422 51.1463 17.9422 51.1463H17.3097C17.1516 51.1463 16.9935 51.1463 16.7564 51.1463H15.4916C15.3335 51.1463 15.0963 51.1463 14.7801 51.1463C14.7801 51.1463 14.701 51.1463 14.701 51.0673C14.701 50.9882 14.701 50.9882 14.7801 50.9882C15.0173 50.9882 15.1754 50.9882 15.3335 50.9092C15.4916 50.8301 15.4916 50.8301 15.4916 50.7511C15.4916 50.672 15.4125 50.5139 15.2544 50.1977L13.6734 47.9052L12.4086 49.7234C12.3295 49.8815 12.2504 50.0396 12.1714 50.1977C12.0923 50.3558 12.0923 50.4349 12.0923 50.593C12.0923 50.9092 12.4876 50.9882 13.2781 50.9882C13.2781 50.9882 13.3572 50.9882 13.3572 51.0673C13.3572 51.1463 13.3572 51.1463 13.2781 51.1463C12.9619 51.1463 12.6457 51.1463 12.4876 51.1463H11.3018H10.5904C10.4323 51.1463 10.2742 51.1463 9.95796 51.1463C9.95796 51.1463 9.95796 51.1463 9.95796 51.0673C9.95796 50.9882 9.95796 50.9882 9.95796 50.9882C10.2742 50.9882 10.6694 50.9092 10.9856 50.672C11.3809 50.4349 11.6971 50.1187 12.0133 49.6444L13.4362 47.6681L11.8552 45.3756C11.539 44.9013 11.2228 44.506 10.8275 44.3479C10.5113 44.1107 10.1161 44.0317 9.87891 44.0317C9.87891 44.0317 9.87891 44.0317 9.87891 43.9526C9.87891 43.8736 9.87891 43.8736 9.87891 43.8736C10.1161 43.8736 10.3532 43.8736 10.5113 43.8736H11.1437H12.4086C12.5667 43.8736 12.8038 43.8736 13.12 43.8736C13.12 43.8736 13.12 43.8736 13.12 43.9526C13.12 44.0317 13.12 44.0317 13.12 44.0317C12.8829 44.0317 12.7248 44.0317 12.5667 44.1107C12.4876 44.1107 12.4086 44.1898 12.4086 44.2689C12.4086 44.3479 12.4876 44.506 12.6457 44.8222L14.0686 46.9566L15.1754 45.2965C15.4125 44.9013 15.5706 44.6641 15.5706 44.506C15.5706 44.3479 15.4916 44.2689 15.3335 44.1898C15.1754 44.1108 14.8591 44.1107 14.3848 44.1107C14.3848 44.1107 14.3848 44.1108 14.3848 44.0317C14.3848 43.9526 14.3848 43.9526 14.3848 43.9526C14.701 43.9526 15.0173 43.9526 15.1754 43.9526H16.3611H17.0726C17.2307 43.9526 17.3888 43.9526 17.705 43.9526C17.705 43.9526 17.705 43.9526 17.705 44.0317C17.705 44.1108 17.705 44.1107 17.705 44.1107C17.3888 44.1107 16.9935 44.1898 16.6773 44.427C16.2821 44.6641 15.9659 44.9803 15.6497 45.4546L14.2267 46.9566L15.9659 49.4862C16.2821 49.9606 16.5983 50.3558 16.9935 50.5139C17.3097 50.7511 17.705 50.8301 17.9422 50.8301C17.9422 50.9092 17.9422 50.9882 17.9422 51.0673Z" fill="#0D0A06"/>
<path d="M20.5468 50.8301C19.9934 50.4348 19.5982 49.9605 19.282 49.4071C19.0448 48.8538 18.8867 48.2214 18.8867 47.5889C18.8867 46.7194 19.1239 46.0079 19.5191 45.3755C19.9144 44.7431 20.4677 44.2688 21.1002 43.9526C21.7326 43.6364 22.444 43.4783 23.0764 43.4783C23.6298 43.4783 24.1832 43.5573 24.5784 43.7945C25.0527 44.0316 25.2899 44.2688 25.2899 44.585C25.2899 44.7431 25.2108 44.9012 25.1318 44.9803C25.0527 45.0593 24.8946 45.1384 24.7365 45.1384C24.4203 45.1384 24.1832 44.9803 23.946 44.585C23.7879 44.3478 23.5508 44.1897 23.3136 44.0316C23.0764 43.8735 22.7602 43.8735 22.444 43.8735C21.6535 43.8735 21.0211 44.1897 20.6259 44.7431C20.2306 45.2965 19.9934 46.087 19.9934 47.0356C19.9934 48.1423 20.3096 49.0119 20.863 49.7233C21.4164 50.4348 22.2859 50.8301 23.3927 50.8301C24.2622 50.8301 24.8946 50.5929 25.3689 50.1186C25.3689 50.1186 25.448 50.1186 25.448 50.1976V50.2767C24.9737 50.672 24.5784 50.9882 24.1041 51.1463C23.7089 51.3044 23.2345 51.3834 22.6812 51.3834C21.8116 51.3834 21.1002 51.2253 20.5468 50.8301Z" fill="#0D0A06"/>
<path d="M26.8796 51.0672C26.8796 50.9882 26.8796 50.9882 26.9587 50.9882C27.3539 50.9882 27.5911 50.9882 27.7492 50.9091C27.9073 50.8301 28.0654 50.751 28.0654 50.5139C28.1445 50.3558 28.1445 50.0396 28.1445 49.6443V39.4467C28.1445 38.9724 28.0654 38.6562 27.9864 38.419C27.9073 38.1819 27.7492 38.1028 27.512 38.1028C27.2749 38.1028 26.9587 38.1819 26.5634 38.419C26.4844 38.419 26.4844 38.419 26.4844 38.34C26.4844 38.2609 26.4844 38.2609 26.5634 38.2609L28.935 37.0751H29.014H29.0931L29.1721 37.1542V49.6443C29.1721 50.0396 29.1721 50.3558 29.2512 50.5139C29.3302 50.672 29.4093 50.8301 29.5674 50.9091C29.7255 50.9882 30.0417 50.9882 30.4369 50.9882C30.4369 50.9882 30.516 50.9882 30.516 51.0672C30.516 51.1463 30.516 51.1463 30.4369 51.1463C30.1207 51.1463 29.8836 51.1463 29.7255 51.1463H28.6978H27.6701C27.512 51.1463 27.2749 51.1463 26.9587 51.1463C26.8796 51.1463 26.8796 51.1463 26.8796 51.0672Z" fill="#0D0A06"/>
<path d="M40.6346 50.1186C40.7137 50.1186 40.7137 50.1186 40.7137 50.1976C40.7137 50.2767 40.7137 50.2767 40.6346 50.3557L38.4212 51.3834H38.3421C38.2631 51.3834 38.105 51.2253 37.9469 50.9091C37.7888 50.5929 37.7888 50.2767 37.7888 49.8024V49.6443C37.2354 50.2767 36.7611 50.672 36.2077 50.9091C35.6544 51.1463 35.1801 51.3044 34.6267 51.3044C33.9943 51.3044 33.52 51.0672 33.1247 50.672C32.7295 50.2767 32.5714 49.6443 32.5714 48.8538V45.8498C32.5714 45.2965 32.4923 44.9012 32.4133 44.7431C32.3342 44.5059 32.1761 44.4269 31.939 44.4269C31.7808 44.4269 31.5437 44.5059 31.2275 44.585C31.1484 44.585 31.1484 44.585 31.1484 44.5059C31.1484 44.4269 31.1484 44.4269 31.2275 44.4269L33.2828 43.4783H33.3619H33.4409L33.52 43.5573V48.3004C33.52 49.0909 33.6781 49.6443 33.9152 50.0395C34.1524 50.4348 34.6267 50.5929 35.1801 50.5929C35.6544 50.5929 36.1287 50.4348 36.603 50.1976C37.0773 49.9605 37.4726 49.6443 37.8678 49.17V45.8498C37.8678 45.2965 37.7888 44.9012 37.7097 44.7431C37.6307 44.5059 37.4726 44.4269 37.2354 44.4269C37.0773 44.4269 36.8401 44.5059 36.5239 44.585C36.4449 44.585 36.4449 44.585 36.4449 44.5059C36.4449 44.4269 36.4449 44.4269 36.5239 44.4269L38.5793 43.4783H38.6583H38.7374L38.8164 43.5573V49.0909C38.8164 49.5652 38.8955 49.8814 38.9745 50.0395C39.0536 50.1976 39.2907 50.3557 39.5279 50.3557C39.686 50.3557 39.8441 50.3557 40.0022 50.2767C40.1603 50.1976 40.3184 50.1976 40.6346 50.1186Z" fill="#0D0A06"/>
<path d="M43.0031 46.008C43.3193 46.2452 43.7936 46.5614 44.347 46.8776C44.8213 47.1147 45.1375 47.2728 45.3747 47.4309C45.6118 47.589 45.849 47.8262 46.0071 48.0633C46.1652 48.3005 46.2442 48.6167 46.2442 49.012C46.2442 49.6444 46.0071 50.1977 45.5328 50.672C45.0584 51.1463 44.5051 51.3835 43.6355 51.3835C42.9241 51.3835 42.3707 51.1463 41.8173 50.7511C41.7383 50.672 41.7383 50.593 41.7383 50.5139V49.091C41.7383 49.091 41.7383 49.012 41.8173 49.012C41.8964 49.012 41.8964 49.012 41.9754 49.091C42.2126 49.7234 42.5288 50.1977 42.9241 50.5139C43.3193 50.8301 43.7936 50.9882 44.2679 50.9882C44.7422 50.9882 45.0584 50.9092 45.2956 50.672C45.5328 50.5139 45.6118 50.1977 45.6118 49.8025C45.6118 49.4072 45.5328 49.091 45.3747 48.8539C45.2165 48.6167 44.9794 48.3795 44.7422 48.2214C44.5051 48.0633 44.1889 47.9052 43.7936 47.6681C43.3984 47.4309 43.0031 47.2728 42.7659 47.1147C42.5288 46.9566 42.2916 46.7195 42.1335 46.4823C41.9754 46.2452 41.8964 45.8499 41.8964 45.4546C41.8964 44.7432 42.1335 44.2689 42.6869 43.8736C43.2403 43.4784 43.7936 43.3203 44.5051 43.3203C44.9794 43.3203 45.4537 43.3993 45.928 43.6365C46.0071 43.6365 46.0861 43.7155 46.0861 43.7155V43.7946C46.0861 44.0317 46.0861 44.2689 46.0861 44.3479V45.1384C46.0861 45.1384 46.0861 45.1384 46.0071 45.1384C45.928 45.1384 45.928 45.1384 45.928 45.1384C45.928 44.7432 45.6909 44.3479 45.2956 44.1108C44.9003 43.8736 44.426 43.7155 43.9517 43.7155C43.6355 43.7155 43.3193 43.7946 43.0822 44.0317C42.845 44.2689 42.7659 44.506 42.7659 44.9013C42.6078 45.3756 42.766 45.6918 43.0031 46.008Z" fill="#0D0A06"/>
<path d="M48.3826 51.0673C48.3826 50.9882 48.3826 50.9882 48.3826 50.9882C48.7779 50.9882 49.015 50.9882 49.2522 50.9092C49.4103 50.8301 49.5684 50.7511 49.6474 50.5139C49.7265 50.3558 49.7265 50.0396 49.7265 49.6443V45.8499C49.7265 45.3756 49.6474 45.0593 49.5684 44.8222C49.4893 44.585 49.3312 44.506 49.0941 44.506C48.8569 44.506 48.5407 44.585 48.1455 44.8222C48.0664 44.8222 48.0664 44.8222 48.0664 44.7431C48.0664 44.6641 48.0664 44.6641 48.0664 44.585L50.517 43.4783H50.5961H50.6751L50.7542 43.5574C50.7542 43.6364 50.7542 43.8736 50.7542 44.3479C50.7542 44.8222 50.7542 45.2965 50.7542 45.8499V49.5653C50.7542 49.9605 50.7542 50.2767 50.8332 50.4348C50.9123 50.5929 50.9913 50.7511 51.1494 50.8301C51.3075 50.9092 51.6237 50.9092 52.019 50.9092C52.019 50.9092 52.098 50.9092 52.098 50.9882C52.098 51.0673 52.098 51.0673 52.019 51.0673C51.7028 51.0673 51.4656 51.0673 51.3075 51.0673H50.2798H49.2522C49.0941 51.0673 48.8569 51.0673 48.5407 51.0673C48.3826 51.1463 48.3826 51.1463 48.3826 51.0673ZM49.4103 40.8696C49.2522 40.7115 49.1731 40.5534 49.1731 40.3163C49.1731 40.0791 49.2522 39.921 49.4103 39.7629C49.5684 39.6048 49.7265 39.6048 49.9636 39.6048C50.2008 39.6048 50.3589 39.6838 50.517 39.7629C50.6751 39.921 50.6751 40.0791 50.6751 40.3163C50.6751 40.5534 50.5961 40.7115 50.517 40.8696C50.3589 41.0277 50.2008 41.0277 49.9636 41.0277C49.8055 41.1068 49.5684 41.0277 49.4103 40.8696Z" fill="#0D0A06"/>
<path d="M61.0318 43.7155C61.0318 43.7945 61.0318 43.7945 61.0318 43.7945C60.7156 43.7945 60.3994 43.8736 60.2413 44.1107C60.0041 44.2688 59.846 44.6641 59.6089 45.1384L57.1583 51.0672C57.1583 51.1463 57.0792 51.1463 56.9211 51.1463C56.763 51.1463 56.684 51.1463 56.684 51.0672L53.9962 45.1384C53.7591 44.585 53.5219 44.1898 53.3638 44.0317C53.2057 43.8736 52.9685 43.7945 52.7314 43.7945C52.7314 43.7945 52.6523 43.7945 52.6523 43.7155C52.6523 43.6364 52.6523 43.6364 52.7314 43.6364C52.9685 43.6364 53.2057 43.6364 53.3638 43.6364H53.9172H55.182C55.3401 43.6364 55.5772 43.6364 55.8935 43.6364C55.8935 43.6364 55.9725 43.6364 55.9725 43.7155C55.9725 43.7945 55.9725 43.7945 55.8935 43.7945C55.1029 43.7945 54.7077 43.9526 54.7077 44.2688C54.7077 44.3479 54.7077 44.4269 54.7867 44.585L57.2373 49.8815L59.2136 45.0593C59.2927 44.8222 59.2927 44.6641 59.2927 44.506C59.2927 44.2688 59.1346 44.1107 58.8974 43.9526C58.6603 43.8736 58.265 43.7945 57.6326 43.7945C57.6326 43.7945 57.6326 43.7945 57.6326 43.7155C57.6326 43.6364 57.6326 43.6364 57.6326 43.6364C57.9488 43.6364 58.265 43.6364 58.4231 43.6364H59.6089H60.3203C60.4784 43.6364 60.6365 43.6364 60.9527 43.6364C61.0318 43.6364 61.0318 43.6364 61.0318 43.7155Z" fill="#0D0A06"/>
<path d="M68.1444 50.1187C68.1444 50.1187 68.2235 50.1187 68.2235 50.1978C68.2235 50.2768 68.2235 50.2768 68.2235 50.3559C67.3539 51.0673 66.4053 51.4626 65.4567 51.4626C64.6662 51.4626 64.0338 51.3045 63.4804 50.9092C62.927 50.593 62.5318 50.1187 62.2156 49.5653C61.8994 49.012 61.8203 48.3796 61.8203 47.7472C61.8203 46.9566 61.9784 46.2452 62.3737 45.6128C62.7689 44.9804 63.2432 44.5061 63.8757 44.1108C64.5081 43.7155 65.2195 43.5574 66.01 43.5574C66.7215 43.5574 67.1958 43.7155 67.5911 44.1108C67.9863 44.427 68.1444 44.9013 68.1444 45.5337C68.1444 45.6918 68.1444 45.7709 68.0654 45.8499C68.0654 45.929 67.9863 45.929 67.9073 45.929H63.0851C63.0061 46.3242 63.0061 46.6404 63.0061 47.0357C63.0061 48.2215 63.3223 49.091 63.8757 49.8025C64.429 50.514 65.2195 50.9092 66.1681 50.9092C66.8796 50.7511 67.5911 50.514 68.1444 50.1187ZM63.9547 44.2689C63.5594 44.5851 63.3223 44.9804 63.1642 45.6128L67.0377 45.5337C67.0377 44.9804 66.8796 44.5851 66.5634 44.2689C66.2472 43.9527 65.8519 43.7946 65.3776 43.7946C64.8243 43.7946 64.35 43.9527 63.9547 44.2689Z" fill="#0D0A06"/>
<path d="M16.5231 54.8616C16.7602 54.9406 16.9974 55.0197 17.1555 55.0987C17.2345 55.0987 17.2345 55.1778 17.2345 55.1778V55.2568L17.3136 56.1264C17.3136 56.1264 17.3136 56.1264 17.2345 56.1264H17.1555C16.9974 55.3359 16.365 54.9406 15.3373 54.9406C14.9421 54.9406 14.5468 55.0197 14.2306 55.1778C13.9144 55.3359 13.6772 55.573 13.5191 55.9683C13.361 56.3635 13.282 56.6797 13.282 57.075C13.282 57.5493 13.361 58.0236 13.5982 58.4189C13.8353 58.8141 14.0725 59.2094 14.4677 59.4465C14.863 59.6837 15.1792 59.8418 15.6535 59.8418C16.0488 59.8418 16.365 59.7627 16.6812 59.5256C16.9974 59.2884 17.1555 58.9722 17.3136 58.577C17.3136 58.577 17.3136 58.577 17.3927 58.577L17.3136 59.4465C17.3136 59.5256 17.3136 59.5256 17.3136 59.6046C17.3136 59.6837 17.2345 59.6046 17.2345 59.6837C16.7602 59.9208 16.2859 59.9999 15.7326 59.9999C15.1002 59.9999 14.5468 59.8418 14.1515 59.6046C13.7563 59.3675 13.4401 59.0513 13.2029 58.656C12.9658 58.2608 12.8867 57.8655 12.8867 57.3912C12.8867 56.9169 13.0448 56.4426 13.282 56.1264C13.5191 55.7311 13.9144 55.4149 14.3887 55.2568C14.863 55.0197 15.3373 54.9406 15.8116 54.9406C15.9697 54.7825 16.2859 54.7825 16.5231 54.8616Z" fill="#0D0A06"/>
<path d="M23.3225 59.6047C22.9272 59.3676 22.611 59.0514 22.4529 58.6561C22.2158 58.2609 22.1367 57.8656 22.1367 57.3913C22.1367 56.8379 22.2948 56.3636 22.532 55.9684C22.7691 55.5731 23.1644 55.2569 23.5596 55.0988C23.9549 54.9407 24.4292 54.7826 24.9035 54.7826C25.3778 54.7826 25.8521 54.8616 26.2474 55.0988C26.6427 55.3359 26.9589 55.6522 27.117 56.0474C27.3541 56.4427 27.4332 56.8379 27.4332 57.3122C27.4332 57.7865 27.2751 58.2609 27.0379 58.6561C26.8008 59.0514 26.4055 59.3676 26.0102 59.6047C25.615 59.8419 25.1407 59.9209 24.5873 59.9209C24.1921 59.9209 23.7177 59.7628 23.3225 59.6047ZM25.9312 59.5257C26.2474 59.3676 26.4845 59.1304 26.6427 58.7352C26.8008 58.419 26.8798 58.0237 26.8798 57.5494C26.8798 57.0751 26.8008 56.6008 26.5636 56.2055C26.4055 55.8103 26.0893 55.4941 25.7731 55.2569C25.4569 55.0197 24.9826 54.9407 24.5083 54.9407C23.8759 54.9407 23.4015 55.0988 23.0853 55.4941C22.7691 55.8893 22.532 56.3636 22.532 57.0751C22.532 57.5494 22.611 58.0237 22.8482 58.419C23.0853 58.8142 23.3225 59.1304 23.6387 59.3676C23.9549 59.6047 24.3502 59.7628 24.8245 59.7628C25.2988 59.7628 25.615 59.6838 25.9312 59.5257Z" fill="#0D0A06"/>
<path d="M33.2025 59.1304C33.2025 59.2885 33.2025 59.3675 33.2816 59.4466C33.3606 59.5256 33.3606 59.6047 33.4397 59.6047C33.5187 59.6047 33.6768 59.6047 33.914 59.6047H34.9417C35.495 59.6047 35.8112 59.2885 35.8903 58.577C35.8903 58.577 35.8903 58.577 35.9693 58.577H36.0484C35.9693 58.9723 35.9693 59.3675 35.9693 59.6047C35.9693 59.6837 35.9693 59.6837 35.9693 59.6837H35.8903H32.2539C32.2539 59.6837 32.2539 59.6837 32.2539 59.6047C32.2539 59.5256 32.2539 59.5256 32.2539 59.5256C32.4911 59.5256 32.6492 59.5256 32.7282 59.5256C32.8073 59.5256 32.8863 59.4466 32.9654 59.3675C32.9654 59.2885 33.0444 59.2094 33.0444 59.0513V55.3359C33.0444 55.1778 33.0444 55.0988 32.9654 55.0197C32.9654 54.9407 32.8863 54.8616 32.7282 54.8616C32.5701 54.8616 32.4911 54.7826 32.2539 54.7826C32.2539 54.7826 32.2539 54.7826 32.2539 54.7035V54.6245H32.6492C32.8863 54.6245 33.0444 54.6245 33.2025 54.6245C33.3606 54.6245 33.5187 54.6245 33.7559 54.6245H34.1511C34.1511 54.6245 34.1511 54.6244 34.1511 54.7035V54.7826C33.914 54.7826 33.7559 54.7826 33.6768 54.8616C33.5978 54.9407 33.5187 54.9407 33.4397 55.0197C33.3606 55.0988 33.2025 55.3359 33.2025 55.494V59.1304Z" fill="#0D0A06"/>
<path d="M41.5881 59.6047C41.1929 59.3676 40.8767 59.0514 40.7186 58.6561C40.4814 58.2609 40.4023 57.8656 40.4023 57.3913C40.4023 56.8379 40.5604 56.3636 40.7976 55.9684C41.0348 55.5731 41.43 55.2569 41.8253 55.0988C42.2205 54.9407 42.6948 54.7826 43.1691 54.7826C43.6435 54.7826 44.1178 54.8616 44.513 55.0988C44.9083 55.3359 45.2245 55.6522 45.3826 56.0474C45.6197 56.4427 45.6988 56.8379 45.6988 57.3122C45.6988 57.7865 45.5407 58.2609 45.3035 58.6561C45.0664 58.9723 44.7502 59.2885 44.2759 59.5257C43.8806 59.7628 43.4063 59.8419 42.8529 59.8419C42.4577 59.9209 41.9834 59.7628 41.5881 59.6047ZM44.1968 59.5257C44.513 59.3676 44.7502 59.1304 44.9083 58.7352C45.0664 58.419 45.1454 58.0237 45.1454 57.5494C45.1454 57.0751 45.0664 56.6008 44.8292 56.2055C44.6711 55.8103 44.3549 55.4941 44.0387 55.2569C43.7225 55.0197 43.2482 54.9407 42.7739 54.9407C42.1415 54.9407 41.6672 55.0988 41.351 55.4941C41.0348 55.8893 40.7976 56.3636 40.7976 57.0751C40.7976 57.5494 40.8767 58.0237 41.1138 58.419C41.351 58.8142 41.5881 59.1304 41.9043 59.3676C42.2205 59.6047 42.6158 59.7628 43.0901 59.7628C43.5644 59.7628 43.8806 59.6838 44.1968 59.5257Z" fill="#0D0A06"/>
<path d="M55.4968 59.7628L54.5482 59.8419C54.3901 59.8419 54.1529 59.6047 53.7577 59.1304C53.3624 58.6561 52.8881 58.0237 52.4138 57.2332C52.2557 57.3122 52.0976 57.3122 51.9395 57.3122C51.8604 57.3122 51.7023 57.3122 51.6233 57.3122V59.2095C51.6233 59.3676 51.6233 59.5257 51.7023 59.6047C51.7023 59.6838 51.7814 59.7628 51.8604 59.7628C51.9395 59.7628 52.0976 59.7628 52.3347 59.7628C52.3347 59.7628 52.3347 59.7628 52.3347 59.8419C52.3347 59.9209 52.3347 59.9209 52.3347 59.9209C52.1766 59.9209 52.0185 59.9209 51.9395 59.9209H51.3861H50.8328C50.7537 59.9209 50.5956 59.9209 50.4375 59.9209C50.4375 59.9209 50.4375 59.9209 50.4375 59.8419C50.4375 59.7628 50.4375 59.7628 50.4375 59.7628C50.6747 59.7628 50.8328 59.7628 50.9118 59.7628C50.9909 59.7628 51.0699 59.6838 51.149 59.6047C51.149 59.5257 51.228 59.4466 51.228 59.2885V55.5731C51.228 55.415 51.228 55.3359 51.149 55.2569C51.149 55.1778 51.0699 55.0988 50.9118 55.0988C50.7537 55.0988 50.6747 55.0197 50.4375 55.0197C50.4375 55.0197 50.4375 55.0197 50.4375 54.9407V54.8616H50.8328C51.0699 54.8616 51.228 54.8616 51.3861 54.8616C51.4652 54.8616 51.5442 54.8616 51.6233 54.8616C51.7023 54.8616 51.7814 54.8616 51.8604 54.8616C52.0185 54.8616 52.1766 54.8616 52.3347 54.8616C52.73 54.8616 53.0462 54.9407 53.2834 55.0988C53.5205 55.2569 53.5996 55.494 53.5996 55.8102C53.5996 56.0474 53.5205 56.2846 53.3624 56.5217C53.2043 56.7589 53.0462 56.917 52.809 57.0751C53.2834 57.7865 53.6786 58.2608 53.9948 58.6561C54.311 59.0514 54.5482 59.2885 54.7853 59.4466C54.9434 59.6047 55.1806 59.6838 55.4968 59.7628ZM52.0185 57.0751C52.4138 57.0751 52.6509 56.996 52.8881 56.8379C53.0462 56.6798 53.1252 56.4427 53.1252 56.0474C53.1252 55.6521 53.0462 55.3359 52.809 55.1778C52.6509 55.0197 52.3347 54.8616 52.0185 54.8616C51.8604 54.8616 51.7814 54.8616 51.7023 54.8616C51.6233 54.8616 51.5442 54.9407 51.5442 55.0197C51.5442 55.0988 51.4652 55.2569 51.4652 55.415V56.996C51.7814 57.0751 51.9395 57.0751 52.0185 57.0751Z" fill="#0D0A06"/>
</svg>
